<svg width="43" height="31" viewBox="0 0 43 31" fill="none" xmlns="http://www.w3.org/2000/svg">
<path d="M7.09091 13.75C5.88826 13.75 4.78977 13.4564 3.79545 12.8693C2.81061 12.2822 2.02462 11.4962 1.4375 10.5114C0.850379 9.51704 0.556818 8.41856 0.556818 7.21591C0.556818 6.01326 0.850379 4.91951 1.4375 3.93466C2.02462 2.94034 2.81061 2.14962 3.79545 1.5625C4.78977 0.975378 5.88826 0.681818 7.09091 0.681818C8.29356 0.681818 9.38731 0.975378 10.3722 1.5625C11.3665 2.14962 12.1572 2.94034 12.7443 3.93466C13.3314 4.91951 13.625 6.01326 13.625 7.21591C13.625 8.41856 13.3314 9.51704 12.7443 10.5114C12.1572 11.4962 11.3665 12.2822 10.3722 12.8693C9.38731 13.4564 8.29356 13.75 7.09091 13.75ZM7.09091 10.9091C7.77273 10.9091 8.39299 10.7434 8.9517 10.4119C9.51042 10.0805 9.95549 9.63542 10.2869 9.0767C10.6184 8.51799 10.7841 7.89773 10.7841 7.21591C10.7841 6.53409 10.6184 5.91382 10.2869 5.35511C9.95549 4.7964 9.51042 4.35133 8.9517 4.01989C8.39299 3.68845 7.77273 3.52273 7.09091 3.52273C6.40909 3.52273 5.78883 3.68845 5.23011 4.01989C4.6714 4.35133 4.22633 4.7964 3.89489 5.35511C3.56345 5.91382 3.39773 6.53409 3.39773 7.21591C3.39773 7.89773 3.56345 8.51799 3.89489 9.0767C4.22633 9.63542 4.6714 10.0805 5.23011 10.4119C5.78883 10.7434 6.40909 10.9091 7.09091 10.9091ZM42.6271 10H39.1044C38.8961 8.98674 38.5315 8.09659 38.0107 7.32955C37.4993 6.5625 36.8743 5.91856 36.1357 5.39773C35.4065 4.86742 34.5968 4.4697 33.7067 4.20455C32.8165 3.93939 31.8885 3.80682 30.9226 3.80682C29.1612 3.80682 27.5656 4.25189 26.1357 5.14205C24.7152 6.0322 23.5836 7.34375 22.7408 9.0767C21.9074 10.8097 21.4908 12.9356 21.4908 15.4545C21.4908 17.9735 21.9074 20.0994 22.7408 21.8324C23.5836 23.5653 24.7152 24.8769 26.1357 25.767C27.5656 26.6572 29.1612 27.1023 30.9226 27.1023C31.8885 27.1023 32.8165 26.9697 33.7067 26.7045C34.5968 26.4394 35.4065 26.0464 36.1357 25.5256C36.8743 24.9953 37.4993 24.3466 38.0107 23.5795C38.5315 22.803 38.8961 21.9129 39.1044 20.9091H42.6271C42.362 22.3958 41.879 23.7263 41.1783 24.9006C40.4775 26.0748 39.6063 27.0739 38.5646 27.8977C37.523 28.7121 36.3535 29.3324 35.0561 29.7585C33.7682 30.1847 32.3904 30.3977 30.9226 30.3977C28.4415 30.3977 26.2351 29.7917 24.3033 28.5795C22.3714 27.3674 20.8516 25.6439 19.7436 23.4091C18.6357 21.1742 18.0817 18.5227 18.0817 15.4545C18.0817 12.3864 18.6357 9.73485 19.7436 7.5C20.8516 5.26515 22.3714 3.54167 24.3033 2.32955C26.2351 1.11742 28.4415 0.511363 30.9226 0.511363C32.3904 0.511363 33.7682 0.724431 35.0561 1.15057C36.3535 1.5767 37.523 2.2017 38.5646 3.02557C39.6063 3.83996 40.4775 4.83428 41.1783 6.00852C41.879 7.17329 42.362 8.50379 42.6271 10Z" fill="white"/>
</svg>
